<svg width="1024" height="1024" viewBox="0 0 1024 1024" xmlns="http://www.w3.org/2000/svg" preserveAspectRatio="xMidYMid meet"><svg x="303" y="333" width="406" height="320" xmlns="http://www.w3.org/2000/svg" preserveAspectRatio="none"><svg version="1.1" xmlns="http://www.w3.org/2000/svg" style="display: block;" width="406" height="320" viewBox="0.00 -1.09 2048.00 1614.19" preserveAspectRatio="none"><g id="svg-group-2d957ba9-9e70-4235-b96c-2417d32f5602">
<defs>
	<linearGradient id="Gradient1" gradientUnits="userSpaceOnUse" x1="940.926" y1="202.477" x2="1404.03" y2="799.597">
		<stop class="stop0" offset="0" stop-opacity="1" stop-color="rgba(133, 191, 116, 1)"/>
		<stop class="stop1" offset="1" stop-opacity="1" stop-color="rgba(63, 159, 129, 1)"/>
	</linearGradient>
</defs>
<path transform="translate(0,0)" fill="rgba(0, 0, 0, 1)" d="M 1174.75 0 L 1196.46 0 C 1201.9 8.43997 1240.48 16.699 1260.88 50.7925 C 1328.99 164.628 1311.89 301.721 1318.43 428.485 C 1319.16 442.448 1317.27 523.047 1324.87 528.139 C 1336.69 530.413 1348.47 530.952 1360.19 532.901 C 1394.7 538.638 1429.88 560.485 1447.85 590.743 C 1484.23 651.993 1491.54 729.747 1519.96 794.146 C 1536.61 831.876 1573.76 883.892 1613.41 895.779 C 1664.99 900.531 1708.89 914.455 1758.57 927.693 L 1906.37 966.25 C 1932.49 973.054 1958.69 979.514 1984.98 985.628 C 2001.82 989.511 2019.25 993.007 2035.81 998.012 C 2041.4 999.701 2044.2 1003.32 2048 1007.59 L 2048 1014.34 C 2044.97 1018.21 2043.56 1019.87 2038.83 1021.32 C 2006.35 1031.27 1972.88 1039.24 1940.27 1048.5 L 1767.95 1099.13 C 1725.66 1111.3 1682.61 1125.67 1639.88 1136.32 C 1634.79 1137.59 1621.03 1137.11 1615.08 1137.05 C 1585.67 1159.44 1553.96 1177.87 1532.19 1208.84 C 1503.66 1249.42 1487.29 1299.32 1455.4 1337.81 C 1429.06 1369.6 1385.96 1369.03 1349.82 1357.05 C 1344.02 1355.12 1328.02 1346.55 1323.28 1347.81 C 1316.46 1353.55 1315.97 1371.49 1314.93 1380.14 C 1309.03 1429.31 1300.1 1479.28 1280.22 1524.97 C 1266.28 1557 1247.78 1590.42 1214.14 1605.11 C 1210.83 1606.59 1204.21 1609.82 1201.52 1612 L 1174.17 1612 C 1161.17 1601.67 1149.75 1604.29 1131.72 1585.43 C 1071.72 1523.34 1066.21 1422.17 1052.55 1341.03 C 1043.2 1285.5 1036.66 1226.56 1018.87 1173.04 C 1017.41 1168.66 1008.51 1155.24 1003.91 1154.57 C 978.562 1151.89 952.511 1162.15 926.658 1165.54 C 884.923 1171.01 864.241 1165.66 825.731 1151.05 C 819.533 1152.51 808.735 1157.37 802.097 1159.91 C 786.928 1165.82 771.086 1169.85 754.931 1171.88 C 708.364 1177.34 656.827 1164.68 615.319 1143.4 C 588.039 1129.41 572.037 1112.1 548.958 1094.29 C 516.395 1069.17 466.801 1041.15 425.77 1034.26 C 425.142 1034.45 423.713 1034.85 423.134 1035.13 C 383.298 1054.63 334.859 1088.78 289.615 1091.79 C 276.856 1092.64 233.387 1077.6 217.877 1073.19 C 194.806 1066.74 171.623 1060.69 148.339 1055.06 C 103.971 1044.26 58.6892 1034.92 14.095 1025.05 C 9.42307 1024.02 3.26754 1018.62 0 1015.25 L 0 1007.56 C 3.28555 1004.37 6.69237 1000.41 11.3421 999.553 C 50.4137 992.371 88.9291 983.235 127.388 973.287 C 150.243 967.376 174.21 962.167 196.281 953.603 C 221.149 944.197 244.259 930.679 264.648 913.615 C 274.545 905.48 282.929 895.491 292.17 887.719 C 313.519 869.764 335.822 851.998 362.67 844.213 C 440.954 821.511 479.929 858.428 535.342 905.971 C 545.082 914.327 562.615 930.964 573.368 936.558 L 574.534 937.154 C 634.177 897.28 641.933 802.815 689.105 770.737 C 692.178 758.817 695.44 738.541 697.605 725.999 C 706.17 676.378 717.912 627.828 749.758 587.376 C 766.407 566.227 793.075 552.937 819.57 548.966 C 840.416 545.841 869.399 560.402 884.813 573.929 C 945.475 627.162 951.365 732.123 956.281 807.244 C 957.707 829.039 959.055 849.828 960.224 871.386 C 960.975 885.237 960.258 899.058 961.467 912.802 C 963.539 916.195 964.581 918.826 968.033 920.564 C 971.044 919.966 971.818 919.059 973.439 916.2 L 976.593 912.134 C 978.347 915.19 980.019 919.108 982.995 920.605 L 985.095 920.175 C 987.396 913.616 991.727 891.836 993.407 884.003 C 1004.16 831.52 1012 778.482 1016.9 725.132 C 1027.56 621.921 1037.37 518.624 1046.32 415.251 L 1056.17 283.08 C 1058.98 247.791 1062.27 209.266 1068.35 174.394 C 1075.05 135.988 1086.1 91.0475 1105.85 56.966 C 1117.3 38.0931 1132.89 19.2548 1153.42 10.009 C 1161.09 6.55712 1169.02 6.48976 1174.75 0 z M 1061.86 1168.69 C 1059.86 1189.6 1061.81 1214.63 1060.56 1237.06 L 1059.19 1237.71 C 1059.07 1241.68 1059.97 1246.69 1061.35 1250.41 C 1062.62 1247.25 1062.14 1176.64 1061.86 1168.69 z"/>
<path transform="translate(0,0)" fill="rgba(177, 212, 192, 1)" d="M 976.593 912.134 C 978.347 915.19 980.019 919.108 982.995 920.605 L 985.095 920.175 L 985.489 921.31 C 980.878 942.112 973.045 964.103 962.486 982.641 C 962.44 969.085 962.204 955.53 961.776 941.981 C 961.529 934.544 960.564 919.621 961.467 912.802 C 963.539 916.195 964.581 918.826 968.033 920.564 C 971.044 919.966 971.818 919.059 973.439 916.2 L 976.593 912.134 z"/>
<path transform="translate(0,0)" fill="url(#Gradient1)" d="M 1175.93 25.2332 C 1178.68 28.2156 1177.97 156.558 1177.93 173.447 L 1179.22 671.055 C 1179.98 738.037 1179.06 801.884 1178.9 868.467 C 1179 894.092 1178.86 919.717 1178.46 945.34 C 1178.25 957.323 1178.41 972.56 1176.88 984.083 C 1163.06 963.298 1156.59 946.084 1148.92 922.629 C 1132.97 870.019 1127.97 828.202 1121.57 773.445 C 1116.84 734.859 1112.55 696.219 1108.72 657.533 C 1101.58 597.432 1095.49 537.209 1090.47 476.894 C 1078.75 349.061 1066.87 194.767 1122.55 74.2337 C 1132.97 51.6677 1151.73 32.6599 1175.93 25.2332 z"/>
<path transform="translate(0,0)" fill="rgba(79, 173, 176, 1)" d="M 1198.16 25.8296 C 1292.98 56.6902 1295.82 279.932 1294.98 360.989 C 1294.67 390.154 1294.82 422.088 1293.82 451.307 C 1289.62 573.506 1265.8 693.311 1249.29 814.116 C 1244.76 847.084 1236 882.712 1227.55 914.752 C 1220.26 942.799 1213.04 955.773 1199.06 980.886 C 1200.02 760.149 1199.81 539.409 1198.43 318.675 L 1197.95 137.135 C 1197.8 101.986 1196.63 60.4355 1198.16 25.8296 z"/>
<path transform="translate(0,0)" fill="rgba(63, 126, 189, 1)" d="M 1175.4 1035.61 L 1176.41 1036.61 C 1177.57 1042.22 1176.99 1063.9 1177.2 1071.07 C 1178.26 1106.31 1177.72 1141.69 1178.01 1176.96 C 1178.97 1267.36 1179.26 1357.76 1178.87 1448.17 C 1178.76 1493.39 1180.02 1541.67 1177.76 1586.54 C 1154.17 1575.56 1143.21 1564.69 1128.79 1543.25 C 1104.17 1502.43 1094.74 1449.48 1085.93 1403.38 C 1076 1351.39 1089.62 1304.53 1100 1253.93 C 1110.15 1204.49 1125.95 1155.51 1142.77 1107.89 C 1151.17 1084.1 1160.37 1056.01 1175.4 1035.61 z"/>
<path transform="translate(0,0)" fill="rgba(63, 126, 189, 1)" d="M 1198.45 1045.63 C 1201.41 1047.78 1206.93 1061.31 1208.78 1065.37 C 1232.3 1116.83 1247.93 1171.07 1264.84 1224.93 C 1273.13 1249.34 1280.89 1274.03 1288.96 1298.48 C 1297.26 1323.62 1296.46 1342.91 1293.85 1368.96 C 1288.01 1427.15 1275.87 1487.09 1247.92 1539.02 C 1235.49 1560.11 1223.13 1573.91 1201.37 1585.48 C 1197.8 1484.2 1199.81 1382.55 1199.77 1281.2 C 1199.74 1202.73 1197.2 1124.08 1198.45 1045.63 z"/>
<path transform="translate(0,0)" fill="rgba(86, 170, 135, 1)" d="M 832.447 572.605 C 833.2 572.681 833.953 572.769 834.704 572.87 C 938.51 587.024 935.61 812.704 940.626 890.073 C 942.334 916.422 945.515 962.129 941.921 987.434 C 922.224 976.796 907.529 964.701 893.168 948.512 C 882.291 936.249 835.532 867.662 834.159 856.366 C 830.357 825.091 832.103 764.512 832.05 731.029 C 831.97 680.214 829.038 622.534 832.447 572.605 z"/>
<path transform="translate(0,0)" fill="rgba(52, 156, 195, 1)" d="M 1449.22 1021.11 C 1468.63 1022.81 1495.87 1021.94 1516.01 1021.84 L 1628.58 1021.52 L 1808.72 1021.9 C 1845.4 1022.02 1882.1 1023.66 1918.75 1022.17 C 1931.12 1021.67 1943.52 1021.28 1955.89 1020.8 C 1934.17 1028.2 1907.51 1034.17 1884.76 1040.58 L 1726.59 1087.59 C 1702.74 1094.54 1660.72 1107.92 1637.41 1111.4 C 1619.59 1113.92 1601.49 1113.81 1583.7 1111.06 C 1522.01 1101.22 1484.57 1069.52 1449.22 1021.11 z"/>
<path transform="translate(0,0)" fill="rgba(52, 156, 195, 1)" d="M 1607.61 921.401 C 1646.79 917.352 1729.59 941.307 1769.56 951.982 L 1894.65 986.101 C 1913.75 991.333 1946.04 997.352 1961.79 1002.66 C 1943.11 1003.54 1919.66 1002.13 1900.5 1001.99 C 1866.42 1002 1832.35 1002.2 1798.27 1002.58 L 1537.01 1002.97 C 1506.68 1003 1476.47 1002.16 1446.14 1002.75 L 1446.91 1001.8 C 1450.02 998.042 1454.45 993.59 1458.17 990.493 C 1502.34 953.762 1549.23 926.93 1607.61 921.401 z"/>
<path transform="translate(0,0)" fill="rgba(52, 156, 195, 1)" d="M 1330.69 551.91 C 1340.9 551.85 1351.09 552.897 1361.08 555.031 C 1384.07 560.015 1405.04 570.058 1417.93 590.284 C 1418.23 601.197 1416.86 618.833 1416.44 630.212 C 1415.68 652.738 1415.21 675.273 1415.01 697.811 C 1413.94 791.62 1413.57 885.435 1413.91 979.25 L 1413.78 980.85 L 1412.79 981.483 C 1383.54 952.793 1365.53 801.624 1358.46 755.607 C 1348.68 692.012 1336.55 615.96 1330.69 551.91 z"/>
<path transform="translate(0,0)" fill="rgba(52, 156, 195, 1)" d="M 1435.3 618.55 C 1446.34 625.356 1471.57 723.602 1478.01 742.809 C 1484.71 763.27 1492.57 783.336 1501.53 802.914 C 1519.02 840.281 1544.18 878.413 1576.75 904.308 C 1552.92 914.032 1540.78 916.223 1515.82 928.76 C 1480.13 948.445 1465.07 961.442 1433.13 984.566 L 1433.79 775.246 C 1434.44 723.171 1436.37 670.463 1435.3 618.55 z"/>
<path transform="translate(0,0)" fill="rgba(63, 126, 189, 1)" d="M 1432.74 1039.6 C 1443.59 1050.03 1453.89 1061.88 1464.9 1072.3 C 1500.99 1106.46 1530.76 1121.06 1577.48 1134.18 C 1535 1164 1511.2 1196.06 1486.59 1240.6 C 1471.09 1268.87 1453.36 1304.55 1432.23 1328.56 C 1433.42 1315.84 1433.14 1302.57 1433.38 1289.73 C 1434.69 1220.29 1434.71 1150.88 1433.99 1081.44 C 1433.84 1067.27 1434.81 1053.74 1432.74 1039.6 z"/>
<path transform="translate(0,0)" fill="rgba(106, 178, 116, 1)" d="M 810.224 572.995 L 812.255 573.008 C 816.309 580.536 813.832 803.174 813.854 832.263 C 798.119 808.455 790.429 798.439 766.075 782.529 C 746.67 772.734 734.776 769.576 712.77 768.656 C 715.657 741.464 718.866 715.347 726.977 689.142 C 742.078 640.354 757.45 591.176 810.224 572.995 z"/>
<path transform="translate(0,0)" fill="rgba(63, 126, 189, 1)" d="M 1413.39 1036.68 L 1414.4 1037.82 C 1415.35 1046.53 1414.57 1063.78 1414.6 1073.46 C 1414.83 1098.48 1414.89 1123.5 1414.79 1148.53 L 1413.73 1267.11 C 1413.5 1284.98 1413.38 1324.85 1410.2 1341.23 C 1382.92 1347.06 1366.74 1340.77 1343.34 1328.51 L 1327.81 1320.17 C 1330.88 1299.21 1345.19 1245.78 1351.38 1224.29 C 1366.57 1171.52 1385.52 1081.56 1413.39 1036.68 z"/>
<path transform="translate(0,0)" fill="rgba(86, 170, 135, 1)" d="M 1051.86 604.278 C 1053.38 601.269 1053.99 600.041 1055.05 596.862 L 1054.9 597.633 L 1056.14 597.78 C 1057.01 601.565 1058.17 605.277 1059.04 609.061 C 1058.52 652.46 1061.03 701.345 1061.59 745.609 C 1062.3 831.751 1062.36 917.897 1061.79 1004.04 C 1029.39 1004.84 1006.24 1001.95 976.043 1001.78 C 1017.5 950.012 1030.22 797.667 1038.08 731.043 C 1042.78 691.18 1047.95 644.654 1051.86 604.278 z"/>
<path transform="translate(0,0)" fill="rgba(52, 156, 195, 1)" d="M 1316.41 644.9 C 1325.53 653.977 1332.15 731.923 1335.47 750.028 C 1349.99 829.107 1354.96 913.017 1389.84 986.686 C 1392.71 992.729 1398.21 997.091 1401.03 1002.71 L 1398.78 1002.34 C 1374.92 1000.35 1341.31 1003.28 1314.2 1002.02 C 1314.54 938.012 1315.37 874.008 1316.7 810.013 C 1317.74 775.436 1318.44 740.849 1318.8 706.259 C 1318.87 689.021 1319.07 661.066 1316.41 644.9 z"/>
<path transform="translate(0,0)" fill="rgba(106, 178, 116, 1)" d="M 712.215 789.756 C 755.984 788.899 789.371 820.534 803.029 860.387 C 797.905 884.089 774.095 921.734 758.813 940.56 C 746.007 956.215 729.236 972.923 712.128 983.835 C 710.329 969.558 709.796 938.846 709.656 924.03 C 709.247 880.922 708.724 832.531 712.215 789.756 z"/>
<path transform="translate(0,0)" fill="rgba(86, 170, 135, 1)" d="M 1077.89 585.143 C 1080.98 596.771 1084.52 618.466 1085.14 630.42 C 1089.41 677.159 1094.61 723.807 1100.75 770.338 C 1110 844.949 1119.53 936.903 1162.37 1000.79 C 1135.3 1002.71 1108.18 1003.78 1081.05 1004 C 1079.85 949.269 1081.36 892.269 1081.06 837.188 C 1080.73 775.88 1078.83 713.138 1078.89 652.101 C 1077.28 641.429 1076.94 594.981 1077.89 585.143 z"/>
<path transform="translate(0,0)" fill="rgba(49, 93, 57, 1)" d="M 1077.89 585.143 C 1080.98 596.771 1084.52 618.466 1085.14 630.42 C 1084.3 628.144 1081.02 616.648 1080.62 616.388 C 1079.57 628.324 1079.82 640.754 1078.89 652.101 C 1077.28 641.429 1076.94 594.981 1077.89 585.143 z"/>
<path transform="translate(0,0)" fill="rgba(52, 156, 195, 1)" d="M 1298.4 633.64 C 1300.72 641.66 1297.51 722.897 1297.29 735.408 L 1293.33 1003.29 C 1265.57 1003.19 1238.77 1001.83 1211.33 1001.59 L 1210.69 1001.25 C 1210.47 999.051 1222.16 983.329 1224.52 978.863 C 1266.41 899.807 1269.33 803.075 1284.75 716.453 C 1289.36 690.561 1290.83 657.361 1298.4 633.64 z"/>
<path transform="translate(0,0)" fill="rgba(63, 126, 189, 1)" d="M 1351.06 1021.49 C 1367.01 1021.71 1382.97 1021.63 1398.92 1021.26 C 1373.23 1055.78 1358.35 1117.7 1347.48 1158.76 L 1329.17 1226.74 C 1326.08 1239.44 1322.8 1250.68 1319 1263.21 C 1315.74 1182.97 1314.5 1102.65 1315.28 1022.34 C 1326.75 1021.74 1339.48 1021.73 1351.06 1021.49 z"/>
<path transform="translate(0,0)" fill="rgba(106, 178, 116, 1)" d="M 430.487 860.062 C 465.761 874.218 476.115 886.899 504.436 910.222 C 518.886 922.123 535.707 935.016 550.559 946.942 C 540.352 952.726 529.057 958.033 518.438 962.994 C 499.854 971.511 451.479 992.747 432.921 996.794 C 431.265 972.081 431.806 943.151 431.101 917.962 C 430.668 902.477 429.433 874.525 430.487 860.062 z"/>
<path transform="translate(0,0)" fill="rgba(63, 126, 189, 1)" d="M 1208.29 1019.68 C 1233.3 1022.74 1267.09 1021.19 1293.29 1022.72 C 1295.07 1079.45 1294.42 1137.65 1294.96 1194.47 C 1295.16 1215.63 1298.37 1234.64 1297.6 1256.16 C 1297.81 1256.4 1274.32 1182.15 1272.12 1175.86 C 1253.7 1123.24 1234.85 1068.86 1208.29 1019.68 z"/>
<path transform="translate(0,0)" fill="rgba(106, 178, 116, 1)" d="M 689.526 801.693 C 693.263 811.54 691.209 971.945 689.763 991.039 C 678.809 984.075 642.2 972.386 625.92 964.956 C 614.608 960.063 607.293 956.01 597.18 949.392 C 622.568 926.534 644.03 885.137 658.998 854.673 C 667.414 837.546 676.728 816.082 689.526 801.693 z"/>
<path transform="translate(0,0)" fill="rgba(106, 178, 116, 1)" d="M 397.923 858.388 C 401.557 858.013 407.065 857.934 410.855 857.772 C 413.369 902.121 414.763 946.527 415.037 990.947 C 409.614 986.228 398.345 979.006 391.815 974.452 C 381.505 967.336 371.507 959.778 361.849 951.799 C 343.722 937.651 324.496 920.689 306.226 905.878 C 331.257 877.379 360.214 863.413 397.923 858.388 z"/>
<path transform="translate(0,0)" fill="rgba(52, 156, 195, 1)" d="M 1157.4 1020.6 L 1157.74 1020.56 L 1158.39 1021.4 C 1141.55 1045.63 1131.37 1074.52 1121.76 1102.19 C 1109.61 1137.25 1098.65 1172.71 1088.88 1208.5 C 1084.53 1224.17 1081.01 1239.53 1076.44 1255.29 L 1076.15 1255.38 C 1074.82 1254 1075.76 1249.72 1075.96 1247.57 C 1082.96 1172.66 1080.46 1097.67 1080.89 1022.37 C 1105.78 1021.03 1131.96 1021.81 1157.4 1020.6 z"/>
<path transform="translate(0,0)" fill="rgba(79, 173, 176, 1)" d="M 973.894 1021.52 C 982.812 1022.23 998.383 1021.84 1007.86 1021.8 C 1025.65 1021.64 1043.44 1021.78 1061.22 1022.23 L 1061.86 1168.69 C 1059.86 1189.6 1061.81 1214.63 1060.56 1237.06 L 1059.19 1237.71 C 1043.8 1170.94 1024.07 1072.08 973.894 1021.52 z"/>
<path transform="translate(0,0)" fill="rgba(79, 173, 176, 1)" d="M 940.837 1030.94 C 944.708 1039.23 938.721 1130.97 937.441 1143.35 C 909.104 1148.74 880.965 1146.63 853.308 1139.04 C 851.031 1138.13 846.297 1136.82 843.773 1136.03 C 871.168 1104.9 909.23 1053.7 940.837 1030.94 z"/>
<path transform="translate(0,0)" fill="rgba(86, 170, 135, 1)" d="M 709.28 1033.58 C 713.85 1036.66 723.338 1050.76 728.014 1055.49 C 751.608 1079.38 778.835 1112.62 805.321 1132.78 C 800.388 1136.07 796.988 1137.73 791.645 1140.36 C 763.691 1151.44 740.899 1154.85 710.765 1151.21 C 708.511 1136.51 709.804 1107.94 709.775 1092.47 C 709.739 1073 709.14 1052.95 709.28 1033.58 z"/>
<path transform="translate(0,0)" fill="rgba(86, 170, 135, 1)" d="M 691.858 1035.98 C 691.1 1035.05 690.778 1139.06 690.479 1148.32 C 661.013 1141.01 645.965 1136.98 619.589 1121.84 C 610.42 1116.13 600.126 1108.3 591.244 1101.85 C 621.146 1089.24 669.99 1059.36 691.858 1035.98 z"/>
<path transform="translate(0,0)" fill="rgba(106, 178, 116, 1)" d="M 281.502 928.933 C 284.361 938.996 282.515 988.813 282.083 1001.96 C 251.554 1002.3 221.021 1002.09 190.499 1001.35 C 163.482 1000.82 124.087 999.984 97.9218 1003.2 L 96.9342 1002.85 L 96.5774 1001.9 C 100.676 999.952 122.028 996.511 127.584 995.642 C 189.813 985.906 230.778 964.422 281.502 928.933 z"/>
<path transform="translate(0,0)" fill="rgba(86, 170, 135, 1)" d="M 830.949 892.66 C 833.846 894.561 843.056 911.012 845.62 914.707 C 865.096 942.764 883.967 971.882 911.999 992.25 C 916.671 995.644 924.677 1000.84 928.269 1004.96 C 911.975 1001.17 889.176 1002.91 871.884 1003.19 C 858.29 1003.51 844.688 1003.08 831.142 1001.88 C 831.185 966.271 833.524 927.701 830.949 892.66 z"/>
<path transform="translate(0,0)" fill="rgba(86, 170, 135, 1)" d="M 719.951 1019.85 C 747.056 1023.36 783.713 1022.82 811.447 1022.75 C 811.239 1049.94 811.153 1086.67 812.86 1113.62 C 798.615 1106.34 735.572 1036.34 719.951 1019.85 z"/>
<path transform="translate(0,0)" fill="rgba(79, 173, 176, 1)" d="M 919.638 1019.43 L 920.826 1018.97 L 921.591 1019.53 C 892.116 1044.15 863.769 1085.31 832.734 1114.23 L 831.562 1114.58 C 829.967 1111.98 830.382 1031.82 830.598 1022.51 C 855.936 1020.53 897.213 1023.25 919.638 1019.43 z"/>
<path transform="translate(0,0)" fill="rgba(86, 170, 135, 1)" d="M 812.543 887.734 C 814.776 890.059 813.067 921.295 813.004 926.416 C 812.674 951.896 812.744 977.379 813.214 1002.86 C 782.938 1003.5 753.216 1002.05 722.958 1001.95 L 722.02 1001.73 L 721.981 1000.68 C 749.839 985.823 782.006 947.738 797.692 920.435 C 803.076 911.064 808.351 897.871 812.543 887.734 z"/>
<path transform="translate(0,0)" fill="rgba(106, 178, 116, 1)" d="M 205.112 1021.53 C 230.661 1020.66 257.074 1021.65 282.693 1022.3 C 282.808 1037.29 282.234 1052.8 281.871 1067.82 C 253.497 1060.83 226.62 1052.09 197.254 1045.22 C 167.662 1038.78 138.21 1031.66 108.7 1024.86 C 105.086 1024.03 101.546 1023.04 98.0358 1021.85 C 133.728 1022.08 169.422 1021.98 205.112 1021.53 z"/>
<path transform="translate(0,0)" fill="rgba(106, 178, 116, 1)" d="M 301.048 925.898 C 322.384 938.52 346.697 966.77 367.623 981.841 C 373.19 985.85 392.775 1000.08 396.29 1003.95 C 380.227 1000.66 362.221 1001.83 345.699 1002.03 C 330.71 1002.18 315.719 1002.19 300.73 1002.04 C 299.375 977.417 300.477 950.634 301.048 925.898 z"/>
<path transform="translate(0,0)" fill="rgba(106, 178, 116, 1)" d="M 676.942 1019.4 L 677.375 1020.19 C 645.642 1049.5 623.256 1065.67 582.258 1082.56 C 579.712 1063.31 580.483 1041.23 581.597 1021.88 C 605.41 1021.24 656.741 1024.14 676.942 1019.4 z"/>
<path transform="translate(0,0)" fill="rgba(52, 156, 195, 1)" d="M 961.882 1038.41 C 980.532 1052.22 1007.61 1113.45 1015.62 1136.42 C 1013.82 1136.75 1011.89 1135.21 1009.79 1134.13 C 990.475 1129.27 976.197 1133.14 957.781 1138.54 C 959.618 1105.18 960.986 1071.8 961.882 1038.41 z"/>
<path transform="translate(0,0)" fill="rgba(106, 178, 116, 1)" d="M 460.772 1021.17 C 494.545 1023.27 532.016 1020.32 562.99 1023.01 C 564.141 1038.38 563.137 1059.59 562.729 1075.37 C 560.812 1075.59 547.187 1065.91 544.278 1064.02 C 526.745 1052.81 508.485 1042.78 489.62 1033.99 C 480.88 1029.96 468.698 1025.62 460.772 1021.17 z"/>
<path transform="translate(0,0)" fill="rgba(106, 178, 116, 1)" d="M 300.208 1022.48 C 329.414 1021.97 373.087 1024.72 399.299 1021.92 L 367.409 1039.34 C 344.183 1051.99 326.134 1061.78 300.518 1068.3 C 299.75 1053.49 300.023 1037.31 300.208 1022.48 z"/>
<path transform="translate(0,0)" fill="rgba(106, 178, 116, 1)" d="M 579.757 963.229 C 605.226 975.907 628.117 989.219 656.093 997.127 C 659.426 998.069 663.922 1000.04 666.276 1002.62 C 638.225 1004.76 610.045 1004.61 582.018 1002.16 C 581.463 989.095 581.003 976.265 579.757 963.229 z"/>
<path transform="translate(0,0)" fill="rgba(106, 178, 116, 1)" d="M 560.865 965.08 C 562.177 967.348 562.969 997.294 563.165 1002.89 C 534.904 1003.17 511.635 1000.99 483.118 1003.59 L 480.698 1003.5 C 481.468 1002.08 551.965 969.539 560.865 965.08 z"/>
<path transform="translate(0,0)" fill="rgba(49, 93, 57, 1)" d="M 1051.86 604.278 C 1051.8 581.88 1054.52 553.061 1059.19 531.197 C 1060.3 550.693 1060.98 589.636 1059.04 609.061 C 1058.17 605.277 1057.01 601.565 1056.14 597.78 L 1054.9 597.633 L 1055.05 596.862 C 1053.99 600.041 1053.38 601.269 1051.86 604.278 z"/>
<path transform="translate(0,0)" fill="rgba(43, 71, 84, 1)" fill-opacity="0.984314" d="M 1059.19 1237.71 L 1060.56 1237.06 C 1061.81 1214.63 1059.86 1189.6 1061.86 1168.69 C 1062.14 1176.64 1062.62 1247.25 1061.35 1250.41 C 1059.97 1246.69 1059.07 1241.68 1059.19 1237.71 z"/>
<path transform="translate(0,0)" fill="rgba(177, 212, 192, 1)" d="M 973.439 916.2 C 973.843 909.051 973.025 897.923 974.32 891.755 C 976.336 891.612 978.923 891.156 980.445 892.05 C 980.523 897.01 977.828 906.902 976.593 912.134 L 973.439 916.2 z"/>
</g></svg></svg></svg>